<svg width="796" height="124" viewBox="0 0 796 124" fill="none" xmlns="http://www.w3.org/2000/svg">
<path d="M0.727273 58.6364V53C5.78788 53 9.31818 51.9394 11.3182 49.8182C13.3485 47.697 14.3636 44.1515 14.3636 39.1818V24.6364C14.3636 20.4545 14.7576 16.8333 15.5455 13.7727C16.3636 10.7121 17.6818 8.18182 19.5 6.18182C21.3182 4.18182 23.7424 2.69697 26.7727 1.72727C29.803 0.757571 33.5455 0.27272 38 0.27272V9.18182C34.4848 9.18182 31.7121 9.72727 29.6818 10.8182C27.6818 11.9091 26.2576 13.6061 25.4091 15.9091C24.5909 18.1818 24.1818 21.0909 24.1818 24.6364V42.8182C24.1818 45.1818 23.8636 47.3333 23.2273 49.2727C22.6212 51.2121 21.4848 52.8788 19.8182 54.2727C18.1515 55.6667 15.7727 56.7424 12.6818 57.5C9.62121 58.2576 5.63636 58.6364 0.727273 58.6364ZM38 116.636C33.5455 116.636 29.803 116.152 26.7727 115.182C23.7424 114.212 21.3182 112.727 19.5 110.727C17.6818 108.727 16.3636 106.197 15.5455 103.136C14.7576 100.076 14.3636 96.4545 14.3636 92.2727V77.7273C14.3636 72.7576 13.3485 69.2121 11.3182 67.0909C9.31818 64.9697 5.78788 63.9091 0.727273 63.9091V58.2727C5.63636 58.2727 9.62121 58.6515 12.6818 59.4091C15.7727 60.1667 18.1515 61.2424 19.8182 62.6364C21.4848 64.0303 22.6212 65.697 23.2273 67.6364C23.8636 69.5758 24.1818 71.7273 24.1818 74.0909V92.2727C24.1818 95.8182 24.5909 98.7273 25.4091 101C26.2576 103.273 27.6818 104.955 29.6818 106.045C31.7121 107.167 34.4848 107.727 38 107.727V116.636ZM0.727273 63.9091V53H11.4545V63.9091H0.727273ZM89.2841 11.9091H100.557V78.4545C100.557 84.3939 99.4659 89.4394 97.2841 93.5909C95.1023 97.7424 92.0265 100.894 88.0568 103.045C84.0871 105.197 79.4053 106.273 74.0114 106.273C68.9205 106.273 64.3902 105.348 60.4205 103.5C56.4508 101.621 53.3295 98.9545 51.0568 95.5C48.7841 92.0455 47.6477 87.9394 47.6477 83.1818H58.7386C58.7386 85.8182 59.3902 88.1212 60.6932 90.0909C62.0265 92.0303 63.8447 93.5455 66.1477 94.6364C68.4508 95.7273 71.072 96.2727 74.0114 96.2727C77.2538 96.2727 80.0114 95.5909 82.2841 94.2273C84.5568 92.8636 86.2841 90.8636 87.4659 88.2273C88.678 85.5606 89.2841 82.303 89.2841 78.4545V11.9091ZM150.057 106.455C143.754 106.455 138.223 104.955 133.466 101.955C128.739 98.9545 125.042 94.7576 122.375 89.3636C119.739 83.9697 118.42 77.6667 118.42 70.4545C118.42 63.1818 119.739 56.8333 122.375 51.4091C125.042 45.9848 128.739 41.7727 133.466 38.7727C138.223 35.7727 143.754 34.2727 150.057 34.2727C156.36 34.2727 161.875 35.7727 166.602 38.7727C171.36 41.7727 175.057 45.9848 177.693 51.4091C180.36 56.8333 181.693 63.1818 181.693 70.4545C181.693 77.6667 180.36 83.9697 177.693 89.3636C175.057 94.7576 171.36 98.9545 166.602 101.955C161.875 104.955 156.36 106.455 150.057 106.455ZM150.057 96.8182C154.845 96.8182 158.784 95.5909 161.875 93.1364C164.966 90.6818 167.254 87.4545 168.739 83.4545C170.223 79.4545 170.966 75.1212 170.966 70.4545C170.966 65.7879 170.223 61.4394 168.739 57.4091C167.254 53.3788 164.966 50.1212 161.875 47.6364C158.784 45.1515 154.845 43.9091 150.057 43.9091C145.269 43.9091 141.33 45.1515 138.239 47.6364C135.148 50.1212 132.86 53.3788 131.375 57.4091C129.89 61.4394 129.148 65.7879 129.148 70.4545C129.148 75.1212 129.89 79.4545 131.375 83.4545C132.86 87.4545 135.148 90.6818 138.239 93.1364C141.33 95.5909 145.269 96.8182 150.057 96.8182ZM218.614 106.636C214.189 106.636 210.174 105.803 206.568 104.136C202.962 102.439 200.098 100 197.977 96.8182C195.856 93.6061 194.795 89.7273 194.795 85.1818C194.795 81.1818 195.583 77.9394 197.159 75.4545C198.735 72.9394 200.841 70.9697 203.477 69.5455C206.114 68.1212 209.023 67.0606 212.205 66.3636C215.417 65.6364 218.644 65.0606 221.886 64.6364C226.129 64.0909 229.568 63.6818 232.205 63.4091C234.871 63.1061 236.811 62.6061 238.023 61.9091C239.265 61.2121 239.886 60 239.886 58.2727V57.9091C239.886 53.4242 238.659 49.9394 236.205 47.4545C233.78 44.9697 230.098 43.7273 225.159 43.7273C220.038 43.7273 216.023 44.8485 213.114 47.0909C210.205 49.3333 208.159 51.7273 206.977 54.2727L196.795 50.6364C198.614 46.3939 201.038 43.0909 204.068 40.7273C207.129 38.3333 210.462 36.6667 214.068 35.7273C217.705 34.7576 221.28 34.2727 224.795 34.2727C227.038 34.2727 229.614 34.5455 232.523 35.0909C235.462 35.6061 238.295 36.6818 241.023 38.3182C243.78 39.9545 246.068 42.4242 247.886 45.7273C249.705 49.0303 250.614 53.4545 250.614 59V105H239.886V95.5455H239.341C238.614 97.0606 237.402 98.6818 235.705 100.409C234.008 102.136 231.75 103.606 228.932 104.818C226.114 106.03 222.674 106.636 218.614 106.636ZM220.25 97C224.492 97 228.068 96.1667 230.977 94.5C233.917 92.8333 236.129 90.6818 237.614 88.0455C239.129 85.4091 239.886 82.6364 239.886 79.7273V69.9091C239.432 70.4545 238.432 70.9545 236.886 71.4091C235.371 71.8333 233.614 72.2121 231.614 72.5455C229.644 72.8485 227.72 73.1212 225.841 73.3636C223.992 73.5758 222.492 73.7576 221.341 73.9091C218.553 74.2727 215.947 74.8636 213.523 75.6818C211.129 76.4697 209.189 77.6667 207.705 79.2727C206.25 80.8485 205.523 83 205.523 85.7273C205.523 89.4545 206.902 92.2727 209.659 94.1818C212.447 96.0606 215.977 97 220.25 97ZM346.557 41H335.284C334.617 37.7576 333.451 34.9091 331.784 32.4545C330.148 30 328.148 27.9394 325.784 26.2727C323.451 24.5758 320.86 23.303 318.011 22.4545C315.163 21.6061 312.193 21.1818 309.102 21.1818C303.466 21.1818 298.36 22.6061 293.784 25.4545C289.239 28.303 285.617 32.5 282.92 38.0455C280.254 43.5909 278.92 50.3939 278.92 58.4545C278.92 66.5151 280.254 73.3182 282.92 78.8636C285.617 84.4091 289.239 88.6061 293.784 91.4545C298.36 94.303 303.466 95.7273 309.102 95.7273C312.193 95.7273 315.163 95.303 318.011 94.4545C320.86 93.6061 323.451 92.3485 325.784 90.6818C328.148 88.9848 330.148 86.9091 331.784 84.4545C333.451 81.9697 334.617 79.1212 335.284 75.9091H346.557C345.708 80.6667 344.163 84.9242 341.92 88.6818C339.678 92.4394 336.89 95.6364 333.557 98.2727C330.223 100.879 326.481 102.864 322.33 104.227C318.208 105.591 313.799 106.273 309.102 106.273C301.163 106.273 294.102 104.333 287.92 100.455C281.739 96.5758 276.875 91.0606 273.33 83.9091C269.784 76.7576 268.011 68.2727 268.011 58.4545C268.011 48.6364 269.784 40.1515 273.33 33C276.875 25.8485 281.739 20.3333 287.92 16.4545C294.102 12.5758 301.163 10.6364 309.102 10.6364C313.799 10.6364 318.208 11.3182 322.33 12.6818C326.481 14.0455 330.223 16.0455 333.557 18.6818C336.89 21.2879 339.678 24.4697 341.92 28.2273C344.163 31.9545 345.708 36.2121 346.557 41ZM391.682 106.455C385.379 106.455 379.848 104.955 375.091 101.955C370.364 98.9545 366.667 94.7576 364 89.3636C361.364 83.9697 360.045 77.6667 360.045 70.4545C360.045 63.1818 361.364 56.8333 364 51.4091C366.667 45.9848 370.364 41.7727 375.091 38.7727C379.848 35.7727 385.379 34.2727 391.682 34.2727C397.985 34.2727 403.5 35.7727 408.227 38.7727C412.985 41.7727 416.682 45.9848 419.318 51.4091C421.985 56.8333 423.318 63.1818 423.318 70.4545C423.318 77.6667 421.985 83.9697 419.318 89.3636C416.682 94.7576 412.985 98.9545 408.227 101.955C403.5 104.955 397.985 106.455 391.682 106.455ZM391.682 96.8182C396.47 96.8182 400.409 95.5909 403.5 93.1364C406.591 90.6818 408.879 87.4545 410.364 83.4545C411.848 79.4545 412.591 75.1212 412.591 70.4545C412.591 65.7879 411.848 61.4394 410.364 57.4091C408.879 53.3788 406.591 50.1212 403.5 47.6364C400.409 45.1515 396.47 43.9091 391.682 43.9091C386.894 43.9091 382.955 45.1515 379.864 47.6364C376.773 50.1212 374.485 53.3788 373 57.4091C371.515 61.4394 370.773 65.7879 370.773 70.4545C370.773 75.1212 371.515 79.4545 373 83.4545C374.485 87.4545 376.773 90.6818 379.864 93.1364C382.955 95.5909 386.894 96.8182 391.682 96.8182ZM516.057 41H504.784C504.117 37.7576 502.951 34.9091 501.284 32.4545C499.648 30 497.648 27.9394 495.284 26.2727C492.951 24.5758 490.36 23.303 487.511 22.4545C484.663 21.6061 481.693 21.1818 478.602 21.1818C472.966 21.1818 467.86 22.6061 463.284 25.4545C458.739 28.303 455.117 32.5 452.42 38.0455C449.754 43.5909 448.42 50.3939 448.42 58.4545C448.42 66.5151 449.754 73.3182 452.42 78.8636C455.117 84.4091 458.739 88.6061 463.284 91.4545C467.86 94.303 472.966 95.7273 478.602 95.7273C481.693 95.7273 484.663 95.303 487.511 94.4545C490.36 93.6061 492.951 92.3485 495.284 90.6818C497.648 88.9848 499.648 86.9091 501.284 84.4545C502.951 81.9697 504.117 79.1212 504.784 75.9091H516.057C515.208 80.6667 513.663 84.9242 511.42 88.6818C509.178 92.4394 506.39 95.6364 503.057 98.2727C499.723 100.879 495.981 102.864 491.83 104.227C487.708 105.591 483.299 106.273 478.602 106.273C470.663 106.273 463.602 104.333 457.42 100.455C451.239 96.5758 446.375 91.0606 442.83 83.9091C439.284 76.7576 437.511 68.2727 437.511 58.4545C437.511 48.6364 439.284 40.1515 442.83 33C446.375 25.8485 451.239 20.3333 457.42 16.4545C463.602 12.5758 470.663 10.6364 478.602 10.6364C483.299 10.6364 487.708 11.3182 491.83 12.6818C495.981 14.0455 499.723 16.0455 503.057 18.6818C506.39 21.2879 509.178 24.4697 511.42 28.2273C513.663 31.9545 515.208 36.2121 516.057 41ZM561.182 106.455C554.879 106.455 549.348 104.955 544.591 101.955C539.864 98.9545 536.167 94.7576 533.5 89.3636C530.864 83.9697 529.545 77.6667 529.545 70.4545C529.545 63.1818 530.864 56.8333 533.5 51.4091C536.167 45.9848 539.864 41.7727 544.591 38.7727C549.348 35.7727 554.879 34.2727 561.182 34.2727C567.485 34.2727 573 35.7727 577.727 38.7727C582.485 41.7727 586.182 45.9848 588.818 51.4091C591.485 56.8333 592.818 63.1818 592.818 70.4545C592.818 77.6667 591.485 83.9697 588.818 89.3636C586.182 94.7576 582.485 98.9545 577.727 101.955C573 104.955 567.485 106.455 561.182 106.455ZM561.182 96.8182C565.97 96.8182 569.909 95.5909 573 93.1364C576.091 90.6818 578.379 87.4545 579.864 83.4545C581.348 79.4545 582.091 75.1212 582.091 70.4545C582.091 65.7879 581.348 61.4394 579.864 57.4091C578.379 53.3788 576.091 50.1212 573 47.6364C569.909 45.1515 565.97 43.9091 561.182 43.9091C556.394 43.9091 552.455 45.1515 549.364 47.6364C546.273 50.1212 543.985 53.3788 542.5 57.4091C541.015 61.4394 540.273 65.7879 540.273 70.4545C540.273 75.1212 541.015 79.4545 542.5 83.4545C543.985 87.4545 546.273 90.6818 549.364 93.1364C552.455 95.5909 556.394 96.8182 561.182 96.8182ZM635.557 106.455C629.739 106.455 624.602 104.985 620.148 102.045C615.693 99.0758 612.208 94.8939 609.693 89.5C607.178 84.0758 605.92 77.6667 605.92 70.2727C605.92 62.9394 607.178 56.5758 609.693 51.1818C612.208 45.7879 615.708 41.6212 620.193 38.6818C624.678 35.7424 629.86 34.2727 635.739 34.2727C640.284 34.2727 643.875 35.0303 646.511 36.5455C649.178 38.0303 651.208 39.7273 652.602 41.6364C654.027 43.5151 655.133 45.0606 655.92 46.2727H656.83V11.9091H667.557V105H657.193V94.2727H655.92C655.133 95.5455 654.011 97.1515 652.557 99.0909C651.102 101 649.027 102.712 646.33 104.227C643.633 105.712 640.042 106.455 635.557 106.455ZM637.011 96.8182C641.314 96.8182 644.951 95.697 647.92 93.4545C650.89 91.1818 653.148 88.0455 654.693 84.0455C656.239 80.0152 657.011 75.3636 657.011 70.0909C657.011 64.8788 656.254 60.3182 654.739 56.4091C653.223 52.4697 650.981 49.4091 648.011 47.2273C645.042 45.0151 641.375 43.9091 637.011 43.9091C632.466 43.9091 628.678 45.0758 625.648 47.4091C622.648 49.7121 620.39 52.8485 618.875 56.8182C617.39 60.7576 616.648 65.1818 616.648 70.0909C616.648 75.0606 617.405 79.5758 618.92 83.6364C620.466 87.6667 622.739 90.8788 625.739 93.2727C628.769 95.6364 632.527 96.8182 637.011 96.8182ZM717.966 106.455C711.239 106.455 705.436 104.97 700.557 102C695.708 99 691.966 94.8182 689.33 89.4545C686.723 84.0606 685.42 77.7879 685.42 70.6364C685.42 63.4848 686.723 57.1818 689.33 51.7273C691.966 46.2424 695.633 41.9697 700.33 38.9091C705.057 35.8182 710.572 34.2727 716.875 34.2727C720.511 34.2727 724.102 34.8788 727.648 36.0909C731.193 37.303 734.42 39.2727 737.33 42C740.239 44.697 742.557 48.2727 744.284 52.7273C746.011 57.1818 746.875 62.6667 746.875 69.1818V73.7273H693.057V64.4545H735.966C735.966 60.5151 735.178 57 733.602 53.9091C732.057 50.8182 729.845 48.3788 726.966 46.5909C724.117 44.803 720.754 43.9091 716.875 43.9091C712.602 43.9091 708.905 44.9697 705.784 47.0909C702.693 49.1818 700.314 51.9091 698.648 55.2727C696.981 58.6364 696.148 62.2424 696.148 66.0909V72.2727C696.148 77.5455 697.057 82.0152 698.875 85.6818C700.723 89.3182 703.284 92.0909 706.557 94C709.83 95.8788 713.633 96.8182 717.966 96.8182C720.784 96.8182 723.33 96.4242 725.602 95.6364C727.905 94.8182 729.89 93.6061 731.557 92C733.223 90.3636 734.511 88.3333 735.42 85.9091L745.784 88.8182C744.693 92.3333 742.86 95.4242 740.284 98.0909C737.708 100.727 734.527 102.788 730.739 104.273C726.951 105.727 722.693 106.455 717.966 106.455ZM795.011 65.5455V71.1818C789.951 71.1818 786.405 72.2424 784.375 74.3636C782.375 76.4848 781.375 80.0303 781.375 85V99.5455C781.375 103.727 780.966 107.348 780.148 110.409C779.36 113.47 778.057 116 776.239 118C774.42 120 771.996 121.485 768.966 122.455C765.936 123.424 762.193 123.909 757.739 123.909V115C761.254 115 764.011 114.439 766.011 113.318C768.042 112.227 769.466 110.545 770.284 108.273C771.133 106 771.557 103.091 771.557 99.5455V81.3636C771.557 79 771.86 76.8485 772.466 74.9091C773.102 72.9697 774.254 71.303 775.92 69.9091C777.587 68.5151 779.951 67.4394 783.011 66.6818C786.102 65.9242 790.102 65.5455 795.011 65.5455ZM757.739 7.54545C762.193 7.54545 765.936 8.0303 768.966 9C771.996 9.9697 774.42 11.4545 776.239 13.4545C778.057 15.4545 779.36 17.9848 780.148 21.0454C780.966 24.1061 781.375 27.7273 781.375 31.9091V46.4545C781.375 51.4242 782.375 54.9697 784.375 57.0909C786.405 59.2121 789.951 60.2727 795.011 60.2727V65.9091C790.102 65.9091 786.102 65.5303 783.011 64.7727C779.951 64.0152 777.587 62.9394 775.92 61.5455C774.254 60.1515 773.102 58.4848 772.466 56.5455C771.86 54.6061 771.557 52.4545 771.557 50.0909V31.9091C771.557 28.3636 771.133 25.4545 770.284 23.1818C769.466 20.8788 768.042 19.1818 766.011 18.0909C764.011 17 761.254 16.4545 757.739 16.4545V7.54545ZM795.011 60.2727V71.1818H784.284V60.2727H795.011Z" fill="#161616"/>
</svg>
