<svg width="542" height="67" viewBox="0 0 542 67" fill="none" xmlns="http://www.w3.org/2000/svg">
<path d="M0.363636 29.8182V27C2.89394 27 4.65909 26.4697 5.65909 25.4091C6.67424 24.3485 7.18182 22.5758 7.18182 20.0909V12.8182C7.18182 10.7273 7.37879 8.91667 7.77273 7.38636C8.18182 5.85606 8.84091 4.59091 9.75 3.59091C10.6591 2.59091 11.8712 1.84848 13.3864 1.36364C14.9015 0.878785 16.7727 0.63636 19 0.63636V5.09091C17.2424 5.09091 15.8561 5.36363 14.8409 5.90909C13.8409 6.45454 13.1288 7.30303 12.7045 8.45454C12.2955 9.59091 12.0909 11.0455 12.0909 12.8182V21.9091C12.0909 23.0909 11.9318 24.1667 11.6136 25.1364C11.3106 26.1061 10.7424 26.9394 9.90909 27.6364C9.07576 28.3333 7.88636 28.8712 6.34091 29.25C4.81061 29.6288 2.81818 29.8182 0.363636 29.8182ZM19 58.8182C16.7727 58.8182 14.9015 58.5758 13.3864 58.0909C11.8712 57.6061 10.6591 56.8636 9.75 55.8636C8.84091 54.8636 8.18182 53.5985 7.77273 52.0682C7.37879 50.5379 7.18182 48.7273 7.18182 46.6364V39.3636C7.18182 36.8788 6.67424 35.1061 5.65909 34.0455C4.65909 32.9848 2.89394 32.4545 0.363636 32.4545V29.6364C2.81818 29.6364 4.81061 29.8258 6.34091 30.2045C7.88636 30.5833 9.07576 31.1212 9.90909 31.8182C10.7424 32.5152 11.3106 33.3485 11.6136 34.3182C11.9318 35.2879 12.0909 36.3636 12.0909 37.5455V46.6364C12.0909 48.4091 12.2955 49.8636 12.7045 51C13.1288 52.1364 13.8409 52.9773 14.8409 53.5227C15.8561 54.0833 17.2424 54.3636 19 54.3636V58.8182ZM0.363636 32.4545V27H5.72727V32.4545H0.363636ZM44.642 6.45454H50.2784V39.7273C50.2784 42.697 49.733 45.2197 48.642 47.2955C47.5511 49.3712 46.0133 50.947 44.0284 52.0227C42.0436 53.0985 39.7027 53.6364 37.0057 53.6364C34.4602 53.6364 32.1951 53.1742 30.2102 52.25C28.2254 51.3106 26.6648 49.9773 25.5284 48.25C24.392 46.5227 23.8239 44.4697 23.8239 42.0909H29.3693C29.3693 43.4091 29.6951 44.5606 30.3466 45.5455C31.0133 46.5152 31.9223 47.2727 33.0739 47.8182C34.2254 48.3636 35.536 48.6364 37.0057 48.6364C38.6269 48.6364 40.0057 48.2955 41.142 47.6136C42.2784 46.9318 43.142 45.9318 43.733 44.6136C44.339 43.2803 44.642 41.6515 44.642 39.7273V6.45454ZM75.0284 53.7273C71.8769 53.7273 69.1117 52.9773 66.733 51.4773C64.3693 49.9773 62.5208 47.8788 61.1875 45.1818C59.8693 42.4848 59.2102 39.3333 59.2102 35.7273C59.2102 32.0909 59.8693 28.9167 61.1875 26.2045C62.5208 23.4924 64.3693 21.3864 66.733 19.8864C69.1117 18.3864 71.8769 17.6364 75.0284 17.6364C78.1799 17.6364 80.9375 18.3864 83.3011 19.8864C85.6799 21.3864 87.5284 23.4924 88.8466 26.2045C90.1799 28.9167 90.8466 32.0909 90.8466 35.7273C90.8466 39.3333 90.1799 42.4848 88.8466 45.1818C87.5284 47.8788 85.6799 49.9773 83.3011 51.4773C80.9375 52.9773 78.1799 53.7273 75.0284 53.7273ZM75.0284 48.9091C77.4223 48.9091 79.392 48.2955 80.9375 47.0682C82.483 45.8409 83.6269 44.2273 84.3693 42.2273C85.1117 40.2273 85.483 38.0606 85.483 35.7273C85.483 33.3939 85.1117 31.2197 84.3693 29.2045C83.6269 27.1894 82.483 25.5606 80.9375 24.3182C79.392 23.0758 77.4223 22.4545 75.0284 22.4545C72.6345 22.4545 70.6648 23.0758 69.1193 24.3182C67.5739 25.5606 66.4299 27.1894 65.6875 29.2045C64.9451 31.2197 64.5739 33.3939 64.5739 35.7273C64.5739 38.0606 64.9451 40.2273 65.6875 42.2273C66.4299 44.2273 67.5739 45.8409 69.1193 47.0682C70.6648 48.2955 72.6345 48.9091 75.0284 48.9091ZM109.307 53.8182C107.095 53.8182 105.087 53.4015 103.284 52.5682C101.481 51.7197 100.049 50.5 98.9886 48.9091C97.928 47.303 97.3977 45.3636 97.3977 43.0909C97.3977 41.0909 97.7917 39.4697 98.5795 38.2273C99.3674 36.9697 100.42 35.9848 101.739 35.2727C103.057 34.5606 104.511 34.0303 106.102 33.6818C107.708 33.3182 109.322 33.0303 110.943 32.8182C113.064 32.5455 114.784 32.3409 116.102 32.2045C117.436 32.053 118.405 31.803 119.011 31.4545C119.633 31.1061 119.943 30.5 119.943 29.6364V29.4545C119.943 27.2121 119.33 25.4697 118.102 24.2273C116.89 22.9848 115.049 22.3636 112.58 22.3636C110.019 22.3636 108.011 22.9242 106.557 24.0455C105.102 25.1667 104.08 26.3636 103.489 27.6364L98.3977 25.8182C99.3068 23.697 100.519 22.0455 102.034 20.8636C103.564 19.6667 105.231 18.8333 107.034 18.3636C108.852 17.8788 110.64 17.6364 112.398 17.6364C113.519 17.6364 114.807 17.7727 116.261 18.0455C117.731 18.303 119.148 18.8409 120.511 19.6591C121.89 20.4773 123.034 21.7121 123.943 23.3636C124.852 25.0152 125.307 27.2273 125.307 30V53H119.943V48.2727H119.67C119.307 49.0303 118.701 49.8409 117.852 50.7045C117.004 51.5682 115.875 52.303 114.466 52.9091C113.057 53.5152 111.337 53.8182 109.307 53.8182ZM110.125 49C112.246 49 114.034 48.5833 115.489 47.75C116.958 46.9167 118.064 45.8409 118.807 44.5227C119.564 43.2045 119.943 41.8182 119.943 40.3636V35.4545C119.716 35.7273 119.216 35.9773 118.443 36.2045C117.686 36.4167 116.807 36.6061 115.807 36.7727C114.822 36.9242 113.86 37.0606 112.92 37.1818C111.996 37.2879 111.246 37.3788 110.67 37.4545C109.277 37.6364 107.973 37.9318 106.761 38.3409C105.564 38.7348 104.595 39.3333 103.852 40.1364C103.125 40.9242 102.761 42 102.761 43.3636C102.761 45.2273 103.451 46.6364 104.83 47.5909C106.223 48.5303 107.989 49 110.125 49ZM158.915 66.0909V47.6364H158.46C158.066 48.2727 157.506 49.0758 156.778 50.0455C156.051 51 155.013 51.8561 153.665 52.6136C152.316 53.3561 150.521 53.7273 148.278 53.7273C145.369 53.7273 142.801 52.9924 140.574 51.5227C138.347 50.0379 136.604 47.947 135.347 45.25C134.089 42.5379 133.46 39.3333 133.46 35.6364C133.46 31.9697 134.089 28.7879 135.347 26.0909C136.604 23.3939 138.354 21.3106 140.597 19.8409C142.839 18.3712 145.43 17.6364 148.369 17.6364C150.642 17.6364 152.438 18.0152 153.756 18.7727C155.089 19.5152 156.104 20.3636 156.801 21.3182C157.513 22.2576 158.066 23.0303 158.46 23.6364H159.097V18.0909H164.278V66.0909H158.915ZM149.006 48.9091C151.157 48.9091 152.975 48.3485 154.46 47.2273C155.945 46.0909 157.074 44.5227 157.847 42.5227C158.619 40.5076 159.006 38.1818 159.006 35.5455C159.006 32.9394 158.627 30.6591 157.869 28.7045C157.112 26.7348 155.991 25.2045 154.506 24.1136C153.021 23.0076 151.188 22.4545 149.006 22.4545C146.733 22.4545 144.839 23.0379 143.324 24.2045C141.824 25.3561 140.695 26.9242 139.938 28.9091C139.195 30.8788 138.824 33.0909 138.824 35.5455C138.824 38.0303 139.203 40.2879 139.96 42.3182C140.733 44.3333 141.869 45.9394 143.369 47.1364C144.884 48.3182 146.763 48.9091 149.006 48.9091ZM196.097 38.7273V18.0909H201.46V53H196.097V47.0909H195.733C194.915 48.8636 193.642 50.3712 191.915 51.6136C190.188 52.8409 188.006 53.4545 185.369 53.4545C183.188 53.4545 181.248 52.9773 179.551 52.0227C177.854 51.053 176.521 49.5985 175.551 47.6591C174.581 45.7045 174.097 43.2424 174.097 40.2727V18.0909H179.46V39.9091C179.46 42.4545 180.172 44.4848 181.597 46C183.036 47.5152 184.869 48.2727 187.097 48.2727C188.43 48.2727 189.786 47.9318 191.165 47.25C192.559 46.5682 193.725 45.5227 194.665 44.1136C195.619 42.7045 196.097 40.9091 196.097 38.7273ZM211.284 53V18.0909H216.648V53H211.284ZM214.011 12.2727C212.966 12.2727 212.064 11.9167 211.307 11.2045C210.564 10.4924 210.193 9.63636 210.193 8.63636C210.193 7.63636 210.564 6.7803 211.307 6.06818C212.064 5.35606 212.966 5 214.011 5C215.057 5 215.951 5.35606 216.693 6.06818C217.451 6.7803 217.83 7.63636 217.83 8.63636C217.83 9.63636 217.451 10.4924 216.693 11.2045C215.951 11.9167 215.057 12.2727 214.011 12.2727ZM231.835 32V53H226.472V18.0909H231.653V23.5455H232.108C232.926 21.7727 234.169 20.3485 235.835 19.2727C237.502 18.1818 239.653 17.6364 242.29 17.6364C244.653 17.6364 246.722 18.1212 248.494 19.0909C250.267 20.0455 251.646 21.5 252.631 23.4545C253.616 25.3939 254.108 27.8485 254.108 30.8182V53H248.744V31.1818C248.744 28.4394 248.032 26.303 246.608 24.7727C245.184 23.2273 243.229 22.4545 240.744 22.4545C239.032 22.4545 237.502 22.8258 236.153 23.5682C234.82 24.3106 233.767 25.3939 232.994 26.8182C232.222 28.2424 231.835 29.9697 231.835 32ZM264.636 53V6.45454H280.909C284.152 6.45454 286.826 7.01515 288.932 8.13636C291.038 9.24242 292.606 10.7348 293.636 12.6136C294.667 14.4773 295.182 16.5455 295.182 18.8182C295.182 20.8182 294.826 22.4697 294.114 23.7727C293.417 25.0758 292.492 26.1061 291.341 26.8636C290.205 27.6212 288.97 28.1818 287.636 28.5455V29C289.061 29.0909 290.492 29.5909 291.932 30.5C293.371 31.4091 294.576 32.7121 295.545 34.4091C296.515 36.1061 297 38.1818 297 40.6364C297 42.9697 296.47 45.0682 295.409 46.9318C294.348 48.7955 292.674 50.2727 290.386 51.3636C288.098 52.4545 285.121 53 281.455 53H264.636ZM270.273 48H281.455C285.136 48 287.75 47.2879 289.295 45.8636C290.856 44.4242 291.636 42.6818 291.636 40.6364C291.636 39.0606 291.235 37.6061 290.432 36.2727C289.629 34.9242 288.485 33.8485 287 33.0455C285.515 32.2273 283.758 31.8182 281.727 31.8182H270.273V48ZM270.273 26.9091H280.727C282.424 26.9091 283.955 26.5758 285.318 25.9091C286.697 25.2424 287.788 24.303 288.591 23.0909C289.409 21.8788 289.818 20.4545 289.818 18.8182C289.818 16.7727 289.106 15.0379 287.682 13.6136C286.258 12.1742 284 11.4545 280.909 11.4545H270.273V26.9091ZM305.534 53V18.0909H310.898V53H305.534ZM308.261 12.2727C307.216 12.2727 306.314 11.9167 305.557 11.2045C304.814 10.4924 304.443 9.63636 304.443 8.63636C304.443 7.63636 304.814 6.7803 305.557 6.06818C306.314 5.35606 307.216 5 308.261 5C309.307 5 310.201 5.35606 310.943 6.06818C311.701 6.7803 312.08 7.63636 312.08 8.63636C312.08 9.63636 311.701 10.4924 310.943 11.2045C310.201 11.9167 309.307 12.2727 308.261 12.2727ZM333.903 53.7273C330.994 53.7273 328.426 52.9924 326.199 51.5227C323.972 50.0379 322.229 47.947 320.972 45.25C319.714 42.5379 319.085 39.3333 319.085 35.6364C319.085 31.9697 319.714 28.7879 320.972 26.0909C322.229 23.3939 323.979 21.3106 326.222 19.8409C328.464 18.3712 331.055 17.6364 333.994 17.6364C336.267 17.6364 338.063 18.0152 339.381 18.7727C340.714 19.5152 341.729 20.3636 342.426 21.3182C343.138 22.2576 343.691 23.0303 344.085 23.6364H344.54V6.45454H349.903V53H344.722V47.6364H344.085C343.691 48.2727 343.131 49.0758 342.403 50.0455C341.676 51 340.638 51.8561 339.29 52.6136C337.941 53.3561 336.146 53.7273 333.903 53.7273ZM334.631 48.9091C336.782 48.9091 338.6 48.3485 340.085 47.2273C341.57 46.0909 342.699 44.5227 343.472 42.5227C344.244 40.5076 344.631 38.1818 344.631 35.5455C344.631 32.9394 344.252 30.6591 343.494 28.7045C342.737 26.7348 341.616 25.2045 340.131 24.1136C338.646 23.0076 336.813 22.4545 334.631 22.4545C332.358 22.4545 330.464 23.0379 328.949 24.2045C327.449 25.3561 326.32 26.9242 325.562 28.9091C324.82 30.8788 324.449 33.0909 324.449 35.5455C324.449 38.0303 324.828 40.2879 325.585 42.3182C326.358 44.3333 327.494 45.9394 328.994 47.1364C330.509 48.3182 332.388 48.9091 334.631 48.9091ZM375.108 53.7273C371.744 53.7273 368.843 52.9848 366.403 51.5C363.979 50 362.108 47.9091 360.79 45.2273C359.487 42.5303 358.835 39.3939 358.835 35.8182C358.835 32.2424 359.487 29.0909 360.79 26.3636C362.108 23.6212 363.941 21.4848 366.29 19.9545C368.653 18.4091 371.411 17.6364 374.562 17.6364C376.381 17.6364 378.176 17.9394 379.949 18.5455C381.722 19.1515 383.335 20.1364 384.79 21.5C386.244 22.8485 387.403 24.6364 388.267 26.8636C389.131 29.0909 389.562 31.8333 389.562 35.0909V37.3636H362.653V32.7273H384.108C384.108 30.7576 383.714 29 382.926 27.4545C382.153 25.9091 381.047 24.6894 379.608 23.7955C378.184 22.9015 376.502 22.4545 374.562 22.4545C372.426 22.4545 370.578 22.9848 369.017 24.0455C367.472 25.0909 366.282 26.4545 365.449 28.1364C364.616 29.8182 364.199 31.6212 364.199 33.5455V36.6364C364.199 39.2727 364.653 41.5076 365.562 43.3409C366.487 45.1591 367.767 46.5455 369.403 47.5C371.04 48.4394 372.941 48.9091 375.108 48.9091C376.517 48.9091 377.79 48.7121 378.926 48.3182C380.078 47.9091 381.07 47.303 381.903 46.5C382.737 45.6818 383.381 44.6667 383.835 43.4545L389.017 44.9091C388.472 46.6667 387.555 48.2121 386.267 49.5455C384.979 50.8636 383.388 51.8939 381.494 52.6364C379.6 53.3636 377.472 53.7273 375.108 53.7273ZM411.812 66.8182C409.222 66.8182 406.994 66.4848 405.131 65.8182C403.267 65.1667 401.714 64.303 400.472 63.2273C399.244 62.1667 398.267 61.0303 397.54 59.8182L401.812 56.8182C402.297 57.4545 402.911 58.1818 403.653 59C404.396 59.8333 405.411 60.553 406.699 61.1591C408.002 61.7803 409.706 62.0909 411.812 62.0909C414.631 62.0909 416.956 61.4091 418.79 60.0455C420.623 58.6818 421.54 56.5455 421.54 53.6364V46.5455H421.085C420.691 47.1818 420.131 47.9697 419.403 48.9091C418.691 49.8333 417.661 50.6591 416.312 51.3864C414.979 52.0985 413.176 52.4545 410.903 52.4545C408.085 52.4545 405.555 51.7879 403.312 50.4545C401.085 49.1212 399.32 47.1818 398.017 44.6364C396.729 42.0909 396.085 39 396.085 35.3636C396.085 31.7879 396.714 28.6742 397.972 26.0227C399.229 23.3561 400.979 21.2955 403.222 19.8409C405.464 18.3712 408.055 17.6364 410.994 17.6364C413.267 17.6364 415.07 18.0152 416.403 18.7727C417.752 19.5152 418.782 20.3636 419.494 21.3182C420.222 22.2576 420.782 23.0303 421.176 23.6364H421.722V18.0909H426.903V54C426.903 57 426.222 59.4394 424.858 61.3182C423.509 63.2121 421.691 64.5985 419.403 65.4773C417.131 66.3712 414.6 66.8182 411.812 66.8182ZM411.631 47.6364C413.782 47.6364 415.6 47.1439 417.085 46.1591C418.57 45.1742 419.699 43.7576 420.472 41.9091C421.244 40.0606 421.631 37.8485 421.631 35.2727C421.631 32.7576 421.252 30.5379 420.494 28.6136C419.737 26.6894 418.616 25.1818 417.131 24.0909C415.646 23 413.813 22.4545 411.631 22.4545C409.358 22.4545 407.464 23.0303 405.949 24.1818C404.449 25.3333 403.32 26.8788 402.562 28.8182C401.82 30.7576 401.449 32.9091 401.449 35.2727C401.449 37.697 401.828 39.8409 402.585 41.7045C403.358 43.553 404.494 45.0076 405.994 46.0682C407.509 47.1136 409.388 47.6364 411.631 47.6364ZM446.994 53.8182C444.782 53.8182 442.775 53.4015 440.972 52.5682C439.169 51.7197 437.737 50.5 436.676 48.9091C435.616 47.303 435.085 45.3636 435.085 43.0909C435.085 41.0909 435.479 39.4697 436.267 38.2273C437.055 36.9697 438.108 35.9848 439.426 35.2727C440.744 34.5606 442.199 34.0303 443.79 33.6818C445.396 33.3182 447.009 33.0303 448.631 32.8182C450.752 32.5455 452.472 32.3409 453.79 32.2045C455.123 32.053 456.093 31.803 456.699 31.4545C457.32 31.1061 457.631 30.5 457.631 29.6364V29.4545C457.631 27.2121 457.017 25.4697 455.79 24.2273C454.578 22.9848 452.737 22.3636 450.267 22.3636C447.706 22.3636 445.699 22.9242 444.244 24.0455C442.79 25.1667 441.767 26.3636 441.176 27.6364L436.085 25.8182C436.994 23.697 438.206 22.0455 439.722 20.8636C441.252 19.6667 442.919 18.8333 444.722 18.3636C446.54 17.8788 448.328 17.6364 450.085 17.6364C451.206 17.6364 452.494 17.7727 453.949 18.0455C455.419 18.303 456.835 18.8409 458.199 19.6591C459.578 20.4773 460.722 21.7121 461.631 23.3636C462.54 25.0152 462.994 27.2273 462.994 30V53H457.631V48.2727H457.358C456.994 49.0303 456.388 49.8409 455.54 50.7045C454.691 51.5682 453.563 52.303 452.153 52.9091C450.744 53.5152 449.025 53.8182 446.994 53.8182ZM447.812 49C449.934 49 451.722 48.5833 453.176 47.75C454.646 46.9167 455.752 45.8409 456.494 44.5227C457.252 43.2045 457.631 41.8182 457.631 40.3636V35.4545C457.403 35.7273 456.903 35.9773 456.131 36.2045C455.373 36.4167 454.494 36.6061 453.494 36.7727C452.509 36.9242 451.547 37.0606 450.608 37.1818C449.684 37.2879 448.934 37.3788 448.358 37.4545C446.964 37.6364 445.661 37.9318 444.449 38.3409C443.252 38.7348 442.282 39.3333 441.54 40.1364C440.813 40.9242 440.449 42 440.449 43.3636C440.449 45.2273 441.138 46.6364 442.517 47.5909C443.911 48.5303 445.676 49 447.812 49ZM472.784 53V18.0909H478.148V53H472.784ZM475.511 12.2727C474.466 12.2727 473.564 11.9167 472.807 11.2045C472.064 10.4924 471.693 9.63636 471.693 8.63636C471.693 7.63636 472.064 6.7803 472.807 6.06818C473.564 5.35606 474.466 5 475.511 5C476.557 5 477.451 5.35606 478.193 6.06818C478.951 6.7803 479.33 7.63636 479.33 8.63636C479.33 9.63636 478.951 10.4924 478.193 11.2045C477.451 11.9167 476.557 12.2727 475.511 12.2727ZM493.335 32V53H487.972V18.0909H493.153V23.5455H493.608C494.426 21.7727 495.669 20.3485 497.335 19.2727C499.002 18.1818 501.153 17.6364 503.79 17.6364C506.153 17.6364 508.222 18.1212 509.994 19.0909C511.767 20.0455 513.146 21.5 514.131 23.4545C515.116 25.3939 515.608 27.8485 515.608 30.8182V53H510.244V31.1818C510.244 28.4394 509.532 26.303 508.108 24.7727C506.684 23.2273 504.729 22.4545 502.244 22.4545C500.532 22.4545 499.002 22.8258 497.653 23.5682C496.32 24.3106 495.267 25.3939 494.494 26.8182C493.722 28.2424 493.335 29.9697 493.335 32ZM541.318 33.2727V36.0909C538.788 36.0909 537.015 36.6212 536 37.6818C535 38.7424 534.5 40.5152 534.5 43V50.2727C534.5 52.3636 534.295 54.1742 533.886 55.7045C533.492 57.2348 532.841 58.5 531.932 59.5C531.023 60.5 529.811 61.2424 528.295 61.7273C526.78 62.2121 524.909 62.4545 522.682 62.4545V58C524.439 58 525.818 57.7197 526.818 57.1591C527.833 56.6136 528.545 55.7727 528.955 54.6364C529.379 53.5 529.591 52.0455 529.591 50.2727V41.1818C529.591 40 529.742 38.9242 530.045 37.9545C530.364 36.9848 530.939 36.1515 531.773 35.4545C532.606 34.7576 533.788 34.2197 535.318 33.8409C536.864 33.4621 538.864 33.2727 541.318 33.2727ZM522.682 4.27272C524.909 4.27272 526.78 4.51515 528.295 5C529.811 5.48485 531.023 6.22727 531.932 7.22727C532.841 8.22727 533.492 9.49242 533.886 11.0227C534.295 12.553 534.5 14.3636 534.5 16.4545V23.7273C534.5 26.2121 535 27.9848 536 29.0455C537.015 30.1061 538.788 30.6364 541.318 30.6364V33.4545C538.864 33.4545 536.864 33.2652 535.318 32.8864C533.788 32.5076 532.606 31.9697 531.773 31.2727C530.939 30.5758 530.364 29.7424 530.045 28.7727C529.742 27.803 529.591 26.7273 529.591 25.5455V16.4545C529.591 14.6818 529.379 13.2273 528.955 12.0909C528.545 10.9394 527.833 10.0909 526.818 9.54545C525.818 9 524.439 8.72727 522.682 8.72727V4.27272ZM541.318 30.6364V36.0909H535.955V30.6364H541.318Z" fill="#161616"/>
</svg>
