<svg width="119" height="59" viewBox="0 0 119 59" fill="none" xmlns="http://www.w3.org/2000/svg">
<path d="M0.363636 29.8182V27C2.89394 27 4.65909 26.4697 5.65909 25.4091C6.67424 24.3485 7.18182 22.5758 7.18182 20.0909V12.8182C7.18182 10.7273 7.37879 8.91667 7.77273 7.38636C8.18182 5.85606 8.84091 4.59091 9.75 3.59091C10.6591 2.59091 11.8712 1.84848 13.3864 1.36364C14.9015 0.878785 16.7727 0.63636 19 0.63636V5.09091C17.2424 5.09091 15.8561 5.36363 14.8409 5.90909C13.8409 6.45454 13.1288 7.30303 12.7045 8.45454C12.2955 9.59091 12.0909 11.0455 12.0909 12.8182V21.9091C12.0909 23.0909 11.9318 24.1667 11.6136 25.1364C11.3106 26.1061 10.7424 26.9394 9.90909 27.6364C9.07576 28.3333 7.88636 28.8712 6.34091 29.25C4.81061 29.6288 2.81818 29.8182 0.363636 29.8182ZM19 58.8182C16.7727 58.8182 14.9015 58.5758 13.3864 58.0909C11.8712 57.6061 10.6591 56.8636 9.75 55.8636C8.84091 54.8636 8.18182 53.5985 7.77273 52.0682C7.37879 50.5379 7.18182 48.7273 7.18182 46.6364V39.3636C7.18182 36.8788 6.67424 35.1061 5.65909 34.0455C4.65909 32.9848 2.89394 32.4545 0.363636 32.4545V29.6364C2.81818 29.6364 4.81061 29.8258 6.34091 30.2045C7.88636 30.5833 9.07576 31.1212 9.90909 31.8182C10.7424 32.5152 11.3106 33.3485 11.6136 34.3182C11.9318 35.2879 12.0909 36.3636 12.0909 37.5455V46.6364C12.0909 48.4091 12.2955 49.8636 12.7045 51C13.1288 52.1364 13.8409 52.9773 14.8409 53.5227C15.8561 54.0833 17.2424 54.3636 19 54.3636V58.8182ZM0.363636 32.4545V27H5.72727V32.4545H0.363636ZM44.642 6.45454H50.2784V39.7273C50.2784 42.697 49.733 45.2197 48.642 47.2955C47.5511 49.3712 46.0133 50.947 44.0284 52.0227C42.0436 53.0985 39.7027 53.6364 37.0057 53.6364C34.4602 53.6364 32.1951 53.1742 30.2102 52.25C28.2254 51.3106 26.6648 49.9773 25.5284 48.25C24.392 46.5227 23.8239 44.4697 23.8239 42.0909H29.3693C29.3693 43.4091 29.6951 44.5606 30.3466 45.5455C31.0133 46.5152 31.9223 47.2727 33.0739 47.8182C34.2254 48.3636 35.536 48.6364 37.0057 48.6364C38.6269 48.6364 40.0057 48.2955 41.142 47.6136C42.2784 46.9318 43.142 45.9318 43.733 44.6136C44.339 43.2803 44.642 41.6515 44.642 39.7273V6.45454ZM61.5739 53V6.45454H77.8466C81.089 6.45454 83.7633 7.01515 85.8693 8.13636C87.9754 9.24242 89.5436 10.7348 90.5739 12.6136C91.6042 14.4773 92.1193 16.5455 92.1193 18.8182C92.1193 20.8182 91.7633 22.4697 91.0511 23.7727C90.3542 25.0758 89.4299 26.1061 88.2784 26.8636C87.142 27.6212 85.9072 28.1818 84.5739 28.5455V29C85.9981 29.0909 87.4299 29.5909 88.8693 30.5C90.3087 31.4091 91.5133 32.7121 92.483 34.4091C93.4527 36.1061 93.9375 38.1818 93.9375 40.6364C93.9375 42.9697 93.4072 45.0682 92.3466 46.9318C91.286 48.7955 89.6117 50.2727 87.3239 51.3636C85.036 52.4545 82.0587 53 78.392 53H61.5739ZM67.2102 48H78.392C82.0739 48 84.6875 47.2879 86.233 45.8636C87.7936 44.4242 88.5739 42.6818 88.5739 40.6364C88.5739 39.0606 88.1723 37.6061 87.3693 36.2727C86.5663 34.9242 85.4223 33.8485 83.9375 33.0455C82.4527 32.2273 80.6951 31.8182 78.6648 31.8182H67.2102V48ZM67.2102 26.9091H77.6648C79.3617 26.9091 80.892 26.5758 82.2557 25.9091C83.6345 25.2424 84.7254 24.303 85.5284 23.0909C86.3466 21.8788 86.7557 20.4545 86.7557 18.8182C86.7557 16.7727 86.0436 15.0379 84.6193 13.6136C83.1951 12.1742 80.9375 11.4545 77.8466 11.4545H67.2102V26.9091ZM118.381 29.6364V32.4545C115.85 32.4545 114.078 32.9848 113.062 34.0455C112.062 35.1061 111.562 36.8788 111.562 39.3636V46.6364C111.562 48.7273 111.358 50.5379 110.949 52.0682C110.555 53.5985 109.903 54.8636 108.994 55.8636C108.085 56.8636 106.873 57.6061 105.358 58.0909C103.843 58.5758 101.972 58.8182 99.7443 58.8182V54.3636C101.502 54.3636 102.881 54.0833 103.881 53.5227C104.896 52.9773 105.608 52.1364 106.017 51C106.441 49.8636 106.653 48.4091 106.653 46.6364V37.5455C106.653 36.3636 106.805 35.2879 107.108 34.3182C107.426 33.3485 108.002 32.5152 108.835 31.8182C109.669 31.1212 110.85 30.5833 112.381 30.2045C113.926 29.8258 115.926 29.6364 118.381 29.6364ZM99.7443 0.63636C101.972 0.63636 103.843 0.878785 105.358 1.36364C106.873 1.84848 108.085 2.59091 108.994 3.59091C109.903 4.59091 110.555 5.85606 110.949 7.38636C111.358 8.91667 111.562 10.7273 111.562 12.8182V20.0909C111.562 22.5758 112.062 24.3485 113.062 25.4091C114.078 26.4697 115.85 27 118.381 27V29.8182C115.926 29.8182 113.926 29.6288 112.381 29.25C110.85 28.8712 109.669 28.3333 108.835 27.6364C108.002 26.9394 107.426 26.1061 107.108 25.1364C106.805 24.1667 106.653 23.0909 106.653 21.9091V12.8182C106.653 11.0455 106.441 9.59091 106.017 8.45454C105.608 7.30303 104.896 6.45454 103.881 5.90909C102.881 5.36363 101.502 5.09091 99.7443 5.09091V0.63636ZM118.381 27V32.4545H113.017V27H118.381Z" fill="#161616"/>
</svg>
